<?xml version="1.0" encoding="utf-8"?>
<!-- Generator: Adobe Illustrator 25.2.3, SVG Export Plug-In . SVG Version: 6.00 Build 0)  -->
<svg version="1.1" id="Layer_1" xmlns="http://www.w3.org/2000/svg" xmlns:xlink="http://www.w3.org/1999/xlink" x="0px" y="0px"
	 viewBox="0 0 263.66 324.13" style="enable-background:new 0 0 263.66 324.13;" xml:space="preserve">
<style type="text/css">
	.st0{fill:#3EC6F3;}
	.st1{fill:#3A3B3A;}
	.st2{fill:#231F20;}
</style>
<g>
	<path class="st0" d="M0.02,122.69c-0.01,0.32-0.01,0.64-0.02,0.96c0.05,1.03,0.33,3.63,2.21,6.19c2.06,2.8,4.79,3.8,5.74,4.11
		c20.34-0.01,40.68-0.01,61.02-0.02c1.29-0.3,4.45-1.22,7.15-4.1c2.06-2.2,2.92-4.53,3.28-5.8c0-0.35,0-0.7,0-1.05
		C52.95,122.89,26.48,122.79,0.02,122.69z"/>
	<path class="st0" d="M73.28,234.16c0,0.5,0,0.99,0,1.49c0,0.66,0.21,3.14,1.57,5.83c1.68,3.32,4.26,5.14,5.45,5.89
		c23.34,0,46.67,0,70.01,0c1.4-0.93,3.14-2.35,4.66-4.45c0.82-1.14,2.77-3.68,3.04-7.34c0.03-0.35,0.05-0.7,0.08-1.05
		C129.82,234.4,101.55,234.28,73.28,234.16z"/>
	<path class="st0" d="M158.98,208.89c1.56-2.18,3.64-4.71,6.39-7.22c4.09-3.75,8.17-6.12,11.3-7.62
		c12.08-7.48,24.15-14.97,36.23-22.45c12.01-8,24.03-16,36.04-24c2.42-2.03,5.29-4.8,8.09-8.44c3.05-3.97,5.09-7.77,6.45-10.81
		c0-0.94,0-1.87,0-2.81c-13.89,6.48-95.82,45.05-104.37,64.3c-1.66,3.74-6.39,14.39-2.62,17.94
		C157.28,208.52,158.25,208.79,158.98,208.89z"/>
	<path class="st0" d="M84.25,90.75c0,0,3.66-2.71,7.93-4.67c8.65-3.97,29.35-3.21,37.99-2.97c23.69,0.65,28.66-0.66,34.29,4.23
		c5.93,5.15,8.85,12.85,8.85,12.85c1.42,3.76,1.89,7.1,2.04,9.45c2.84,0.11,5.69,0.21,8.53,0.32c1.09-2.9,8.79-24.25-2.14-37.72
		c-7.04-8.67-18.19-9.13-40.21-9.7c-23.6-0.61-53.26-1.38-62.55,15.7c-3.33,6.13-3.01,12.65-2.52,16.37
		c1.05,0.04,2.11,0.08,3.16,0.12C80.73,93.61,82.28,92.21,84.25,90.75z"/>
	<path class="st0" d="M73.62,310.96c0,1.01,0,2.02,0,3.04c0.24,1.17,0.68,2.66,1.52,4.26c1.69,3.16,4.08,4.99,5.44,5.87
		c22.81,0.01,45.62,0.01,68.43,0.02c1.23-0.66,3.35-2,5.19-4.43c1.73-2.27,2.47-4.5,2.8-5.84c0-0.84,0-1.68-0.01-2.52
		C129.21,311.22,101.42,311.09,73.62,310.96z"/>
</g>
<g>
	<path class="st1" d="M0,123.65c26.47,0.13,52.94,0.26,79.4,0.38c0.2-11.67,0.4-23.35,0.6-35.02c0.42-1.89,1.83-7.15,6.68-11.57
		c5.04-4.6,10.67-5.45,12.56-5.65c20.99,0.18,41.98,0.36,62.97,0.54c2.65,0.84,12.43,4.27,17.19,13.96
		c0.86,1.74,5.76,11.73,0.91,18.4c-1.45,2-3.35,3.11-4.7,3.72c-14.71,9.14-29.52,18.29-44.41,27.43
		c-19.37,11.89-38.67,23.65-57.9,35.27c-0.03,21.8-0.06,43.6-0.09,65.4c28.27-0.06,56.55-0.13,84.82-0.19
		c0.02-5.96,0.03-11.93,0.05-17.89c0.05-2.28,0.24-5.46,0.89-9.19c0.72-4.08,1.6-9.84,4.9-14.7c3.5-5.14,7.99-7.75,10.04-8.92
		c9.9-5.65,43.18-27.15,89.62-57.28c0.03-16.23,0.07-32.47,0.1-48.7c-1.26-8.48-4.23-20.81-12.08-33.19
		C222.9,1.29,157.47,0.41,132.51,0.08C106.05-0.28,45.09-1.1,14.81,41.18C5.39,54.33,1.67,67.84,0,76.93"/>
	<path class="st1" d="M73.57,250.97c27.84,0.13,55.67,0.26,83.51,0.39c-0.02,21.17-0.04,42.33-0.06,63.5
		c-27.8,0.04-55.6,0.09-83.4,0.13"/>
	<path class="st2" d="M73.57,250.97c11.75,0.06,23.51,0.11,35.26,0.17c13.31,21.25,26.63,42.49,39.94,63.74
		c-25.05,0.04-50.11,0.08-75.16,0.11"/>
	<path class="st2" d="M73.32,171.12c17.75,21.74,35.5,43.49,53.26,65.23c-17.78,0.06-35.56,0.11-53.34,0.17
		C73.26,214.72,73.29,192.92,73.32,171.12z"/>
</g>
</svg>
